<?xml version="1.0" encoding="UTF-8" standalone="no"?>
<!-- Created with Inkscape (http://www.inkscape.org/) -->

<svg
   xmlns:dc="http://purl.org/dc/elements/1.1/"
   xmlns:cc="http://creativecommons.org/ns#"
   xmlns:rdf="http://www.w3.org/1999/02/22-rdf-syntax-ns#"
   xmlns:svg="http://www.w3.org/2000/svg"
   xmlns="http://www.w3.org/2000/svg"
   xmlns:xlink="http://www.w3.org/1999/xlink"
   xmlns:sodipodi="http://sodipodi.sourceforge.net/DTD/sodipodi-0.dtd"
   xmlns:inkscape="http://www.inkscape.org/namespaces/inkscape"
   width="236.7343mm"
   height="203.1122mm"
   viewBox="0 0 236.7343 203.1122"
   version="1.1"
   id="svg11581"
   inkscape:version="0.92.4 (5da689c313, 2019-01-14)"
   sodipodi:docname="sunriseLogo.svg">
  <defs
     id="defs11575">
    <radialGradient
       inkscape:collect="always"
       xlink:href="#b"
       id="radialGradient1037"
       gradientUnits="userSpaceOnUse"
       gradientTransform="matrix(0.45372854,0,0,0.46370033,2851.6069,636.87836)"
       cx="-4835.7002"
       cy="-854.62"
       r="131.7" />
    <radialGradient
       gradientUnits="userSpaceOnUse"
       gradientTransform="matrix(1.7518,-1.0524e-7,1.0756e-7,1.7903,3635.4,675.39)"
       r="131.7"
       cy="-854.62"
       cx="-4835.7002"
       id="b">
      <stop
         id="stop988"
         offset="0"
         stop-color="#fffd44" />
      <stop
         id="stop990"
         offset="1"
         stop-color="#ffd429" />
    </radialGradient>
    <radialGradient
       gradientUnits="userSpaceOnUse"
       r="135.78"
       cy="-854.62"
       cx="-4835.7002"
       id="a"
       gradientTransform="matrix(0.25900706,0,0,0.25900706,1910.6553,457.85435)">
      <stop
         id="stop993"
         offset="0"
         stop-opacity="0"
         stop-color="#ffd429" />
      <stop
         id="stop995"
         offset=".4255"
         stop-opacity="0"
         stop-color="#ffd429" />
      <stop
         id="stop997"
         offset=".73"
         stop-color="#ffd429" />
      <stop
         id="stop999"
         offset="1"
         stop-color="#ffd429" />
    </radialGradient>
  </defs>
  <sodipodi:namedview
     id="base"
     pagecolor="#ffffff"
     bordercolor="#666666"
     borderopacity="1.0"
     inkscape:pageopacity="0.0"
     inkscape:pageshadow="2"
     inkscape:zoom="0.35"
     inkscape:cx="-37.304907"
     inkscape:cy="350.90381"
     inkscape:document-units="mm"
     inkscape:current-layer="layer1"
     showgrid="false"
     inkscape:window-width="1280"
     inkscape:window-height="657"
     inkscape:window-x="-8"
     inkscape:window-y="-8"
     inkscape:window-maximized="1" />
  <metadata
     id="metadata11578">
    <rdf:RDF>
      <cc:Work
         rdf:about="">
        <dc:format>image/svg+xml</dc:format>
        <dc:type
           rdf:resource="http://purl.org/dc/dcmitype/StillImage" />
        <dc:title></dc:title>
      </cc:Work>
    </rdf:RDF>
  </metadata>
  <g
     inkscape:label="Layer 1"
     inkscape:groupmode="layer"
     id="layer1"
     transform="translate(7.1386719,-38.564432)">
    <g
       id="g1083"
       transform="matrix(3.7542619,0,0,3.7542619,-440.30812,-181.13473)">
      <path
         id="path1004"
         transform="scale(0.26458333)"
         d="m 633.73828,221.17773 c 1.25163,3.06189 2.96042,5.37665 4.78711,7.69922 -5.2032,1.9173 -10.3298,3.84798 -15.10742,3.14063 3.88093,4.60256 7.72153,6.2995 11.79492,7.92969 -3.54735,4.26196 -7.0225,8.49716 -11.51367,10.27343 5.66317,2.04585 9.83787,1.59765 14.18164,0.97266 -0.94118,5.46479 -1.83439,10.86825 -4.83594,14.65234 5.92687,-1.05972 9.31865,-3.53716 12.76758,-6.25 1.91754,5.20397 3.84601,10.33122 3.13867,15.10938 4.60279,-3.88096 6.30119,-7.72126 7.93164,-11.79492 4.26199,3.54736 8.49714,7.02249 10.27344,11.51367 2.04582,-5.66319 1.5976,-9.83784 0.97266,-14.18164 2.13623,0.36791 4.25874,0.73283 6.2832,1.21484 v -40.2793 h -4.63086 c -0.17791,0.1385 -0.35729,0.27416 -0.53516,0.41407 -0.0511,-0.13861 -0.0974,-0.27558 -0.14843,-0.41407 z"
         style="fill:url(#radialGradient1037);stroke-width:0.25900707"
         inkscape:connector-curvature="0" />
      <path
         id="path1006"
         transform="scale(0.26458333)"
         d="m 628.37109,221.17773 c 2.40024,4.26722 5.31307,6.59953 8.41602,8.92188 -4.52978,3.19874 -8.9834,6.39012 -13.78125,6.94336 4.94082,3.44194 9.08973,4.08877 13.44726,4.60937 -2.32352,5.0351 -4.58425,10.02426 -8.46289,12.90235 5.99913,0.51035 9.91545,-1.00652 13.94922,-2.73438 0.50533,5.52281 1.04117,10.97582 -0.8789,15.40821 5.45028,-2.55752 8.0854,-5.82694 10.71484,-9.33985 3.19874,4.52978 6.39012,8.98145 6.94336,13.7793 3.44194,-4.94056 4.08877,-9.08947 4.60937,-13.44727 4.09577,1.89006 8.16038,3.73963 11.08399,6.45118 v -9.70313 c -0.2925,-0.74859 -0.59784,-1.49155 -0.91602,-2.23437 0.3073,-0.0281 0.60932,-0.0483 0.91602,-0.0762 v -7.91797 c -3.00982,5.91832 -9.14172,9.98047 -16.23633,9.98047 -10.06372,0 -18.22266,-8.15698 -18.22266,-18.2207 0,-6.43524 3.34399,-12.08018 8.38086,-15.32227 z m 39.64453,0 c 2.71315,1.74635 4.92596,4.19028 6.39649,7.08204 v -7.08204 h -0.002 z"
         style="fill:url(#a);stroke-width:0.25900707"
         inkscape:connector-curvature="0" />
    </g>
    <ellipse
       style="fill:#b0e7ff;stroke-width:0.07921531"
       cx="96.649208"
       cy="114.42323"
       rx="103.78788"
       ry="66.3349"
       id="ellipse1087" />
    <path
       style="fill:#69d5ff;stroke-width:0.07921531"
       inkscape:connector-curvature="0"
       d="m -0.63511043,185.1944 c 0,0 -17.03920857,17.2531 10.29798903,29.57109 27.3372054,12.31796 8.0799604,1.79817 24.0022354,20.77815 15.92228,18.98001 60.845271,-23.0833 77.480496,-9.23649 16.63522,13.85476 32.5575,23.09125 52.29001,6.41647 19.73255,-16.67485 39.21157,9.23647 35.40926,-8.46815 -3.80234,-17.7046 -21.86343,-9.23649 -20.91285,-18.47298 0.95057,-9.23652 24.9449,0.80799 19.96225,-13.15769 -1.79818,-5.03018 -3.27159,-6.51943 -3.27159,-6.51943 z"
       id="path1089" />
    <ellipse
       style="fill:#48e65f;stroke-width:0.07921531"
       cx="96.649208"
       cy="191.19083"
       rx="98.353729"
       ry="15.328161"
       id="ellipse1091" />
    <g
       id="g1097"
       transform="matrix(0.07921531,0,0,0.07921531,-22.17375,29.948024)">
      <polygon
         style="fill:#39b54a"
         points="1049.8,1464.1 1334.8,2035.5 371.2,2035.5 615.6,1545.4 853,1069.4 "
         id="polygon1093" />
      <path
         style="fill:#2b8a39"
         inkscape:connector-curvature="0"
         d="M 1334.8,2035.5 H 371.2 l 244.4,-490.1 c 25,12.5 53.4,29.3 85.4,51.6 151.8,105.7 253.9,-49.3 348.8,-132.9 z"
         id="path1095" />
    </g>
    <g
       id="g1103"
       transform="matrix(0.07921531,0,0,0.07921531,-22.17375,29.948024)">
      <polygon
         style="fill:#39b54a"
         points="2360.4,1497.2 2628.8,2035.5 1665.2,2035.5 1935.4,1493.8 2147,1069.4 "
         id="polygon1099" />
      <path
         style="fill:#2b8a39"
         inkscape:connector-curvature="0"
         d="m 2628.8,2035.5 h -963.6 l 270.2,-541.8 c 53.3,11.6 115.2,43.8 179.6,115.2 75.7,84 165.7,7.4 245.4,-111.8 z"
         id="path1101" />
    </g>
    <g
       id="g1109"
       transform="matrix(0.07921531,0,0,0.07921531,-22.17375,29.948024)">
      <polygon
         style="fill:#39b54a"
         points="1763.9,1538.1 1981.8,2117 1018.2,2117 1251.5,1497.2 1500,837 "
         id="polygon1105" />
      <path
         style="fill:#2e943d"
         inkscape:connector-curvature="0"
         d="m 1981.8,2117 h -963.6 l 233.3,-619.8 c 48.7,18 100.9,51.9 131.3,115.6 69,144 184.7,-216 272.4,-120 32.6,35.7 71.4,47.3 108.7,45.3 z"
         id="path1107" />
    </g>
    <path
       style="fill:#6f9aab;stroke-width:0.07921531"
       inkscape:connector-curvature="0"
       d="m 158.89658,71.932135 c -0.86345,0 -1.70313,0.150506 -2.47151,0.419842 -1.23576,-2.416069 -3.73894,-4.063747 -6.63824,-4.063747 -3.85778,0 -7.03432,2.938887 -7.40665,6.693695 -0.49113,-0.126756 -1.00602,-0.198028 -1.54469,-0.198028 -3.32703,0 -6.02036,2.693317 -6.02036,6.020359 0,3.327043 2.69333,6.020364 6.02036,6.020364 h 18.06109 c 4.11129,0 7.44624,-3.334963 7.44624,-7.446239 0,-4.111273 -3.33495,-7.446237 -7.44624,-7.446237 z"
       id="path1115" />
    <path
       style="fill:#6f9aab;stroke-width:0.07921531"
       inkscape:connector-curvature="0"
       d="m 28.825062,106.62051 c -0.712941,0 -1.394188,0.11882 -2.027911,0.34855 -1.006034,-1.97246 -3.065632,-3.32705 -5.43417,-3.32705 -3.160692,0 -5.758954,2.40815 -6.067895,5.48171 -0.403993,-0.10299 -0.823839,-0.16634 -1.259521,-0.16634 -2.725008,0 -4.9271954,2.2101 -4.9271954,4.92719 0,2.725 2.2101084,4.93511 4.9271954,4.93511 h 14.789497 c 3.36665,0 6.099577,-2.73294 6.099577,-6.09957 0,-3.36666 -2.732927,-6.09958 -6.099577,-6.09958 z"
       id="path1117" />
    <path
       style="fill:#6f9aab;stroke-width:0.07921531"
       inkscape:connector-curvature="0"
       d="m 129.76122,99.237643 c -0.71295,0 -1.3942,0.11882 -2.02791,0.34855 -1.00607,-1.97246 -3.06565,-3.32704 -5.43418,-3.32704 -3.16071,0 -5.75896,2.40814 -6.06791,5.481687 -0.40399,-0.10298 -0.82382,-0.16633 -1.2595,-0.16633 -2.72503,0 -4.9272,2.2101 -4.9272,4.92719 0,2.71708 2.21011,4.92719 4.9272,4.92719 h 14.7895 c 3.36663,0 6.09958,-2.73293 6.09958,-6.09958 0,-3.36665 -2.73295,-6.091657 -6.09958,-6.091657 z"
       id="path1119" />
    <path
       style="fill:#00a651;stroke-width:0.07921531"
       inkscape:connector-curvature="0"
       d="m 2.8424446,190.71547 c 0,0 -4.1192,-4.71329 -2.69332403,-3.7944 1.42587703,0.91889 1.79818503,1.53677 1.42587703,-0.11863 -0.37231,-1.64767 -1.68728503,-5.55302 -0.530744,-3.65978 1.164467,1.89327 1.845719,4.87968 1.798191,3.77859 -0.05546,-1.10108 -0.578274,-6.64618 0,-4.75294 0.578268,1.89324 0.261408,4.87968 0.578268,4.94305 0.31686,0.0634 0.530744,-7.9136 1.267446,-5.33119 0.736702,2.58239 -1.053562,5.60846 -0.380236,5.60054 0.673331,-0.007 1.988306,-5.64808 2.083364,-3.90535 0.09507,1.74276 -1.069405,3.8182 -0.594115,3.93702 0.475294,0.11863 1.322896,-2.622 1.425875,-0.91098 0.102984,1.71105 -2.479438,4.22217 -2.479438,4.22217 h -1.901164 z"
       id="path1121" />
    <path
       style="fill:#00a651;stroke-width:0.07921531"
       inkscape:connector-curvature="0"
       d="m 52.993652,202.37597 c 0,0 -4.119197,-4.71333 -2.693324,-3.79442 1.425875,0.91095 1.79819,1.53679 1.425875,-0.11863 -0.37231,-1.64767 -1.687283,-5.55297 -0.530737,-3.65973 1.164463,1.89324 1.845715,4.87965 1.798186,3.77857 -0.05544,-1.10111 -0.578275,-6.64618 0,-4.7529 0.578271,1.89322 0.26141,4.87963 0.578271,4.94301 0.31686,0.0634 0.530742,-7.91361 1.267441,-5.33117 0.736705,2.58242 -1.05356,5.60841 -0.380227,5.60049 0.673327,-0.007 1.9883,-5.64801 2.08336,-3.9053 0.09507,1.74274 -1.069407,3.81817 -0.594113,3.93699 0.475287,0.11863 1.322891,-2.62202 1.42587,-0.91097 0.102984,1.71104 -2.479435,4.22219 -2.479435,4.22219 h -1.901167 z"
       id="path1123" />
    <path
       style="fill:#00a651;stroke-width:0.07921531"
       inkscape:connector-curvature="0"
       d="m 188.26962,190.71547 c 0,0 -4.11918,-4.71329 -2.69331,-3.7944 1.42587,0.91889 1.79817,1.53677 1.42587,-0.11863 -0.37242,-1.64767 -1.68728,-5.55302 -0.53073,-3.65978 1.16444,1.89327 1.8457,4.87968 1.79817,3.77859 -0.0555,-1.10108 -0.57827,-6.64618 0,-4.75294 0.57828,1.89324 0.26129,4.87968 0.57828,4.94305 0.31684,0.0634 0.53072,-7.9136 1.26742,-5.33119 0.73669,2.58239 -1.05356,5.60846 -0.38022,5.60054 0.67331,-0.007 1.98833,-5.64808 2.0834,-3.90535 0.0949,1.74276 -1.06945,3.8182 -0.59413,3.93702 0.47529,0.11863 1.32288,-2.622 1.42587,-0.91098 0.10284,1.71105 -2.47946,4.22217 -2.47946,4.22217 h -1.90116 z"
       id="path1125" />
    <path
       style="fill:#00a651;stroke-width:0.07921531"
       inkscape:connector-curvature="0"
       d="m 140.01958,202.37597 c 0,0 -4.11918,-4.71333 -2.69331,-3.79442 1.42587,0.91095 1.79817,1.53679 1.42587,-0.11863 -0.37242,-1.64767 -1.68728,-5.55297 -0.53073,-3.65973 1.15652,1.89324 1.8457,4.87965 1.79817,3.77857 -0.0555,-1.10111 -0.57827,-6.64618 0,-4.7529 0.57828,1.89322 0.26129,4.87963 0.57828,4.94301 0.31684,0.0634 0.53073,-7.91361 1.26742,-5.33117 0.7367,2.58242 -1.05356,5.60841 -0.38022,5.60049 0.67332,-0.007 1.98833,-5.64801 2.0834,-3.9053 0.095,1.74274 -1.06944,3.81817 -0.59415,3.93699 0.47531,0.11863 1.3229,-2.62202 1.42589,-0.91097 0.10284,1.71104 -2.47946,4.22219 -2.47946,4.22219 h -1.90116 z"
       id="path1127" />
    <path
       style="fill:#00a651;stroke-width:0.07921531"
       inkscape:connector-curvature="0"
       d="m 158.19949,200.64909 c 0,0 -4.11918,-4.71331 -2.69331,-3.79444 1.42587,0.91097 1.79817,1.53676 1.42587,-0.11863 -0.37242,-1.64767 -1.68728,-5.553 -0.53075,-3.65973 1.16446,1.89324 1.84572,4.87965 1.79819,3.77854 -0.0555,-1.10108 -0.57827,-6.64616 0,-4.75292 0.57825,1.89327 0.26129,4.87968 0.57825,4.94306 0.31687,0.0634 0.53078,-7.91363 1.2675,-5.33122 0.73669,2.58244 -1.05361,5.60846 -0.38025,5.60054 0.67334,-0.007 1.98831,-5.64806 2.08335,-3.9053 0.0949,1.74274 -1.06939,3.81817 -0.5941,3.93699 0.47529,0.11863 1.32288,-2.62202 1.42587,-0.91098 0.10284,1.71105 -2.47944,4.22219 -2.47944,4.22219 h -1.90118 z"
       id="path1129" />
    <path
       style="fill:#00a651;stroke-width:0.07921531"
       inkscape:connector-curvature="0"
       d="m 43.638324,197.6468 c 0,0 -4.119194,-4.71329 -2.693321,-3.7944 1.425875,0.91098 1.798185,1.52888 1.425875,-0.11909 -0.372313,-1.64772 -1.687288,-5.55301 -0.530742,-3.65977 1.156544,1.89324 1.845715,4.87967 1.798188,3.77859 -0.05544,-1.10109 -0.578275,-6.64616 0,-4.75295 0.578271,1.89325 0.261408,4.8797 0.578271,4.94306 0.316863,0.0634 0.53074,-7.91361 1.267444,-5.33119 0.736702,2.58239 -1.053563,5.60845 -0.380232,5.60053 0.673331,-0.007 1.988302,-5.64808 2.083364,-3.90534 0.09507,1.74273 -1.069411,3.81819 -0.594115,3.93701 0.475287,0.11863 1.322892,-2.62205 1.425873,-0.91095 0.102984,1.71102 -2.47944,4.22216 -2.47944,4.22216 h -1.901165 z"
       id="path1131" />
    <path
       style="fill:#ffd42a;stroke-width:0.07921531"
       d="M 45.397164,114.66103 26.592079,152.3682 7.2301926,191.19092 h 4.3515744 l 16.523559,-35.30342 17.41794,-37.21248 14.437995,30.85486 7.473146,15.96483 h 3.311694 l -9.760483,-19.56754 z"
       id="polygon1197"
       inkscape:connector-curvature="0" />
    <path
       id="path1213"
       d="m 96.319703,92.335385 -13.788084,34.446115 -14.595734,37.81933 2.344775,0.75257 13.764206,-35.0526 12.40094,-33.951417 13.936294,35.370157 12.37366,35.04984 3.75509,-4.61179 45.37732,-79.634937 -6.26622,-4.07056 -39.88738,80.156157 -14.32812,-30.49142 z"
       style="fill:#ffd42a;stroke-width:0.07921531"
       inkscape:connector-curvature="0"
       sodipodi:nodetypes="cccccccccccccc" />
    <path
       sodipodi:type="star"
       style="opacity:1;fill:#ffd42a;fill-opacity:1;stroke:none;stroke-width:1.92488086;stroke-linejoin:round;stroke-miterlimit:4;stroke-dasharray:none;stroke-dashoffset:0;stroke-opacity:1"
       id="path1215"
       sodipodi:sides="3"
       sodipodi:cx="169.4776"
       sodipodi:cy="82.387611"
       sodipodi:r1="11.206536"
       sodipodi:r2="5.6032686"
       sodipodi:arg1="1.0471976"
       sodipodi:arg2="2.0943951"
       inkscape:flatsided="false"
       inkscape:rounded="0"
       inkscape:randomized="0"
       d="m 175.08087,92.092757 -8.4049,-4.852573 -8.40491,-4.852573 8.40491,-4.852573 8.4049,-4.852571 0,9.705144 z"
       inkscape:transform-center-x="2.8016354"
       inkscape:transform-center-y="1.4823803e-06" />
  </g>
</svg>
